<mxfile host="app.diagrams.net" agent="Mozilla/5.0 (Windows NT 10.0; Win64; x64; rv:134.0) Gecko/20100101 Firefox/134.0" version="26.0.8">
  <diagram name="Page-1" id="4aNB_mZM3ysPGIGwCQCH">
    <mxGraphModel dx="956" dy="503" grid="1" gridSize="10" guides="1" tooltips="1" connect="1" arrows="1" fold="1" page="1" pageScale="1" pageWidth="850" pageHeight="1100" math="0" shadow="0">
      <root>
        <mxCell id="0" />
        <mxCell id="1" parent="0" />
        <mxCell id="PCScmDSAhNLaTmxLWjqH-4" value="" style="endArrow=none;html=1;rounded=0;" parent="1" edge="1">
          <mxGeometry width="50" height="50" relative="1" as="geometry">
            <mxPoint x="285" y="219.66" as="sourcePoint" />
            <mxPoint x="345" y="219.66" as="targetPoint" />
          </mxGeometry>
        </mxCell>
        <mxCell id="PCScmDSAhNLaTmxLWjqH-7" value="GND" style="text;html=1;align=center;verticalAlign=middle;whiteSpace=wrap;rounded=0;fillColor=#f5f5f5;fontColor=#333333;strokeColor=#666666;" parent="1" vertex="1">
          <mxGeometry x="345" y="215" width="60" height="10" as="geometry" />
        </mxCell>
        <mxCell id="PCScmDSAhNLaTmxLWjqH-9" value="" style="endArrow=none;html=1;rounded=0;" parent="1" edge="1">
          <mxGeometry width="50" height="50" relative="1" as="geometry">
            <mxPoint x="285" y="239.66" as="sourcePoint" />
            <mxPoint x="345" y="239.66" as="targetPoint" />
          </mxGeometry>
        </mxCell>
        <mxCell id="PCScmDSAhNLaTmxLWjqH-10" value="SDA" style="text;html=1;align=center;verticalAlign=middle;whiteSpace=wrap;rounded=0;fillColor=#e1d5e7;strokeColor=#9673a6;" parent="1" vertex="1">
          <mxGeometry x="345" y="235" width="60" height="10" as="geometry" />
        </mxCell>
        <mxCell id="PCScmDSAhNLaTmxLWjqH-11" value="" style="endArrow=none;html=1;rounded=0;" parent="1" edge="1">
          <mxGeometry width="50" height="50" relative="1" as="geometry">
            <mxPoint x="285" y="259.65999999999997" as="sourcePoint" />
            <mxPoint x="345" y="259.65999999999997" as="targetPoint" />
          </mxGeometry>
        </mxCell>
        <mxCell id="PCScmDSAhNLaTmxLWjqH-12" value="SCL" style="text;html=1;align=center;verticalAlign=middle;whiteSpace=wrap;rounded=0;fillColor=#e1d5e7;strokeColor=#9673a6;" parent="1" vertex="1">
          <mxGeometry x="345" y="255" width="60" height="10" as="geometry" />
        </mxCell>
        <mxCell id="PCScmDSAhNLaTmxLWjqH-14" value="TEENSY 4.1" style="rounded=0;whiteSpace=wrap;html=1;" parent="1" vertex="1">
          <mxGeometry x="620" y="130" width="110" height="240" as="geometry" />
        </mxCell>
        <mxCell id="PCScmDSAhNLaTmxLWjqH-15" value="" style="endArrow=none;html=1;rounded=0;" parent="1" edge="1">
          <mxGeometry width="50" height="50" relative="1" as="geometry">
            <mxPoint x="560" y="160" as="sourcePoint" />
            <mxPoint x="620" y="160" as="targetPoint" />
          </mxGeometry>
        </mxCell>
        <mxCell id="PCScmDSAhNLaTmxLWjqH-16" value="+3.3" style="ellipse;whiteSpace=wrap;html=1;aspect=fixed;" parent="1" vertex="1">
          <mxGeometry x="530" y="140" width="30" height="30" as="geometry" />
        </mxCell>
        <mxCell id="PCScmDSAhNLaTmxLWjqH-18" value="3V" style="text;html=1;align=center;verticalAlign=middle;whiteSpace=wrap;rounded=0;" parent="1" vertex="1">
          <mxGeometry x="560" y="140" width="60" height="20" as="geometry" />
        </mxCell>
        <mxCell id="PCScmDSAhNLaTmxLWjqH-19" value="" style="endArrow=none;html=1;rounded=0;" parent="1" edge="1">
          <mxGeometry width="50" height="50" relative="1" as="geometry">
            <mxPoint x="560" y="194.66" as="sourcePoint" />
            <mxPoint x="620" y="194.66" as="targetPoint" />
          </mxGeometry>
        </mxCell>
        <mxCell id="PCScmDSAhNLaTmxLWjqH-24" value="" style="endArrow=none;html=1;rounded=0;exitX=1;exitY=0.5;exitDx=0;exitDy=0;" parent="1" source="PCScmDSAhNLaTmxLWjqH-25" edge="1">
          <mxGeometry width="50" height="50" relative="1" as="geometry">
            <mxPoint x="560" y="234.66" as="sourcePoint" />
            <mxPoint x="620" y="234.66" as="targetPoint" />
          </mxGeometry>
        </mxCell>
        <mxCell id="PCScmDSAhNLaTmxLWjqH-25" value="SCL" style="text;html=1;align=center;verticalAlign=middle;whiteSpace=wrap;rounded=0;fillColor=#e1d5e7;strokeColor=#9673a6;" parent="1" vertex="1">
          <mxGeometry x="500" y="230" width="60" height="10" as="geometry" />
        </mxCell>
        <mxCell id="PCScmDSAhNLaTmxLWjqH-27" value="Pin 19" style="text;html=1;align=center;verticalAlign=middle;whiteSpace=wrap;rounded=0;" parent="1" vertex="1">
          <mxGeometry x="560" y="220" width="60" height="10" as="geometry" />
        </mxCell>
        <mxCell id="PCScmDSAhNLaTmxLWjqH-29" value="" style="endArrow=none;html=1;rounded=0;exitX=1;exitY=0.25;exitDx=0;exitDy=0;" parent="1" source="PCScmDSAhNLaTmxLWjqH-30" edge="1">
          <mxGeometry width="50" height="50" relative="1" as="geometry">
            <mxPoint x="560" y="257.15999999999997" as="sourcePoint" />
            <mxPoint x="620" y="257.15999999999997" as="targetPoint" />
          </mxGeometry>
        </mxCell>
        <mxCell id="PCScmDSAhNLaTmxLWjqH-30" value="SDA" style="text;html=1;align=center;verticalAlign=middle;whiteSpace=wrap;rounded=0;fillColor=#e1d5e7;strokeColor=#9673a6;" parent="1" vertex="1">
          <mxGeometry x="500" y="255" width="60" height="10" as="geometry" />
        </mxCell>
        <mxCell id="PCScmDSAhNLaTmxLWjqH-31" value="Pin 18" style="text;html=1;align=center;verticalAlign=middle;whiteSpace=wrap;rounded=0;" parent="1" vertex="1">
          <mxGeometry x="560" y="242.5" width="60" height="12.5" as="geometry" />
        </mxCell>
        <mxCell id="PCScmDSAhNLaTmxLWjqH-35" value="" style="shape=ellipse;fillColor=#000103;strokeColor=none;html=1;sketch=0;" parent="1" vertex="1">
          <mxGeometry x="450" y="230" width="10" height="10" as="geometry" />
        </mxCell>
        <mxCell id="PCScmDSAhNLaTmxLWjqH-39" value="" style="shape=ellipse;fillColor=#000103;strokeColor=none;html=1;sketch=0;" parent="1" vertex="1">
          <mxGeometry x="480" y="255" width="10" height="10" as="geometry" />
        </mxCell>
        <mxCell id="PCScmDSAhNLaTmxLWjqH-40" value="" style="endArrow=none;html=1;rounded=0;entryX=0.5;entryY=1;entryDx=0;entryDy=0;" parent="1" target="PCScmDSAhNLaTmxLWjqH-35" edge="1">
          <mxGeometry width="50" height="50" relative="1" as="geometry">
            <mxPoint x="455" y="310" as="sourcePoint" />
            <mxPoint x="340" y="270" as="targetPoint" />
          </mxGeometry>
        </mxCell>
        <mxCell id="PCScmDSAhNLaTmxLWjqH-41" value="" style="endArrow=none;html=1;rounded=0;entryX=0.5;entryY=1;entryDx=0;entryDy=0;" parent="1" edge="1">
          <mxGeometry width="50" height="50" relative="1" as="geometry">
            <mxPoint x="484.65999999999997" y="335" as="sourcePoint" />
            <mxPoint x="484.65999999999997" y="265" as="targetPoint" />
          </mxGeometry>
        </mxCell>
        <mxCell id="PCScmDSAhNLaTmxLWjqH-42" value="" style="pointerEvents=1;verticalLabelPosition=bottom;shadow=0;dashed=0;align=center;html=1;verticalAlign=top;shape=mxgraph.electrical.resistors.resistor_2;rotation=-90;" parent="1" vertex="1">
          <mxGeometry x="425" y="330" width="60" height="10" as="geometry" />
        </mxCell>
        <mxCell id="PCScmDSAhNLaTmxLWjqH-43" value="" style="pointerEvents=1;verticalLabelPosition=bottom;shadow=0;dashed=0;align=center;html=1;verticalAlign=top;shape=mxgraph.electrical.resistors.resistor_2;rotation=-90;" parent="1" vertex="1">
          <mxGeometry x="455" y="360" width="60" height="10" as="geometry" />
        </mxCell>
        <mxCell id="PCScmDSAhNLaTmxLWjqH-44" value="" style="ellipse;whiteSpace=wrap;html=1;aspect=fixed;" parent="1" vertex="1">
          <mxGeometry x="440" y="360" width="30" height="30" as="geometry" />
        </mxCell>
        <mxCell id="PCScmDSAhNLaTmxLWjqH-45" value="" style="ellipse;whiteSpace=wrap;html=1;aspect=fixed;" parent="1" vertex="1">
          <mxGeometry x="470" y="390" width="30" height="30" as="geometry" />
        </mxCell>
        <mxCell id="PCScmDSAhNLaTmxLWjqH-46" value="+3.3" style="text;html=1;align=center;verticalAlign=middle;whiteSpace=wrap;rounded=0;" parent="1" vertex="1">
          <mxGeometry x="435" y="370" width="40" height="10" as="geometry" />
        </mxCell>
        <mxCell id="PCScmDSAhNLaTmxLWjqH-47" value="+3.3" style="text;html=1;align=center;verticalAlign=middle;whiteSpace=wrap;rounded=0;" parent="1" vertex="1">
          <mxGeometry x="465" y="400" width="40" height="10" as="geometry" />
        </mxCell>
        <mxCell id="PCScmDSAhNLaTmxLWjqH-49" value="" style="endArrow=none;html=1;rounded=0;" parent="1" edge="1">
          <mxGeometry width="50" height="50" relative="1" as="geometry">
            <mxPoint x="145" y="236.81" as="sourcePoint" />
            <mxPoint x="205" y="236.81" as="targetPoint" />
          </mxGeometry>
        </mxCell>
        <mxCell id="PCScmDSAhNLaTmxLWjqH-50" value="GND" style="text;html=1;align=center;verticalAlign=middle;whiteSpace=wrap;rounded=0;fillColor=#f5f5f5;fontColor=#333333;strokeColor=#666666;" parent="1" vertex="1">
          <mxGeometry x="90" y="232.5" width="60" height="10" as="geometry" />
        </mxCell>
        <mxCell id="PCScmDSAhNLaTmxLWjqH-51" value="" style="endArrow=none;html=1;rounded=0;" parent="1" edge="1">
          <mxGeometry width="50" height="50" relative="1" as="geometry">
            <mxPoint x="145" y="210" as="sourcePoint" />
            <mxPoint x="205" y="210" as="targetPoint" />
          </mxGeometry>
        </mxCell>
        <mxCell id="PCScmDSAhNLaTmxLWjqH-52" value="+20" style="ellipse;whiteSpace=wrap;html=1;aspect=fixed;" parent="1" vertex="1">
          <mxGeometry x="115" y="195" width="30" height="30" as="geometry" />
        </mxCell>
        <mxCell id="PCScmDSAhNLaTmxLWjqH-53" value="VIN" style="text;html=1;align=center;verticalAlign=middle;whiteSpace=wrap;rounded=0;" parent="1" vertex="1">
          <mxGeometry x="145" y="190" width="60" height="20" as="geometry" />
        </mxCell>
        <mxCell id="PCScmDSAhNLaTmxLWjqH-54" value="GND" style="text;html=1;align=center;verticalAlign=middle;whiteSpace=wrap;rounded=0;fillColor=#f5f5f5;fontColor=#333333;strokeColor=#666666;" parent="1" vertex="1">
          <mxGeometry x="515" y="190" width="60" height="10" as="geometry" />
        </mxCell>
        <mxCell id="PCScmDSAhNLaTmxLWjqH-59" value="TICT249" style="rounded=0;whiteSpace=wrap;html=1;" parent="1" vertex="1">
          <mxGeometry x="205" y="190" width="90" height="160" as="geometry" />
        </mxCell>
        <mxCell id="PCScmDSAhNLaTmxLWjqH-60" value="" style="endArrow=none;html=1;rounded=0;" parent="1" edge="1">
          <mxGeometry width="50" height="50" relative="1" as="geometry">
            <mxPoint x="155" y="269.65999999999997" as="sourcePoint" />
            <mxPoint x="205" y="269.65999999999997" as="targetPoint" />
          </mxGeometry>
        </mxCell>
        <mxCell id="PCScmDSAhNLaTmxLWjqH-62" value="A1" style="text;html=1;align=center;verticalAlign=middle;whiteSpace=wrap;rounded=0;fillColor=#f5f5f5;strokeColor=#666666;fontColor=#333333;" parent="1" vertex="1">
          <mxGeometry x="100" y="265" width="60" height="10" as="geometry" />
        </mxCell>
        <mxCell id="PCScmDSAhNLaTmxLWjqH-63" value="" style="endArrow=none;html=1;rounded=0;" parent="1" edge="1">
          <mxGeometry width="50" height="50" relative="1" as="geometry">
            <mxPoint x="155" y="294.65999999999997" as="sourcePoint" />
            <mxPoint x="205" y="294.65999999999997" as="targetPoint" />
          </mxGeometry>
        </mxCell>
        <mxCell id="PCScmDSAhNLaTmxLWjqH-64" value="A2" style="text;html=1;align=center;verticalAlign=middle;whiteSpace=wrap;rounded=0;fillColor=#fff2cc;strokeColor=#d6b656;" parent="1" vertex="1">
          <mxGeometry x="100" y="290" width="60" height="10" as="geometry" />
        </mxCell>
        <mxCell id="PCScmDSAhNLaTmxLWjqH-65" value="" style="endArrow=none;html=1;rounded=0;" parent="1" edge="1">
          <mxGeometry width="50" height="50" relative="1" as="geometry">
            <mxPoint x="155" y="314.65999999999997" as="sourcePoint" />
            <mxPoint x="205" y="314.65999999999997" as="targetPoint" />
          </mxGeometry>
        </mxCell>
        <mxCell id="PCScmDSAhNLaTmxLWjqH-66" value="B2" style="text;html=1;align=center;verticalAlign=middle;whiteSpace=wrap;rounded=0;fillColor=#dae8fc;strokeColor=#6c8ebf;" parent="1" vertex="1">
          <mxGeometry x="100" y="310" width="60" height="10" as="geometry" />
        </mxCell>
        <mxCell id="PCScmDSAhNLaTmxLWjqH-67" value="" style="endArrow=none;html=1;rounded=0;" parent="1" edge="1">
          <mxGeometry width="50" height="50" relative="1" as="geometry">
            <mxPoint x="155" y="334.65999999999997" as="sourcePoint" />
            <mxPoint x="205" y="334.65999999999997" as="targetPoint" />
          </mxGeometry>
        </mxCell>
        <mxCell id="PCScmDSAhNLaTmxLWjqH-68" value="B1" style="text;html=1;align=center;verticalAlign=middle;whiteSpace=wrap;rounded=0;fillColor=#f8cecc;strokeColor=#b85450;" parent="1" vertex="1">
          <mxGeometry x="100" y="330" width="60" height="10" as="geometry" />
        </mxCell>
        <mxCell id="PCScmDSAhNLaTmxLWjqH-72" value="" style="endArrow=none;html=1;rounded=0;" parent="1" edge="1">
          <mxGeometry width="50" height="50" relative="1" as="geometry">
            <mxPoint x="480" y="260" as="sourcePoint" />
            <mxPoint x="500" y="259.58" as="targetPoint" />
          </mxGeometry>
        </mxCell>
        <mxCell id="PCScmDSAhNLaTmxLWjqH-73" value="" style="endArrow=none;html=1;rounded=0;exitX=1;exitY=0.5;exitDx=0;exitDy=0;" parent="1" source="PCScmDSAhNLaTmxLWjqH-35" edge="1">
          <mxGeometry width="50" height="50" relative="1" as="geometry">
            <mxPoint x="440" y="235.42000000000002" as="sourcePoint" />
            <mxPoint x="500" y="235" as="targetPoint" />
          </mxGeometry>
        </mxCell>
        <mxCell id="PCScmDSAhNLaTmxLWjqH-74" value="" style="endArrow=none;html=1;rounded=0;exitX=1;exitY=0.5;exitDx=0;exitDy=0;entryX=0;entryY=0.5;entryDx=0;entryDy=0;" parent="1" source="PCScmDSAhNLaTmxLWjqH-10" target="PCScmDSAhNLaTmxLWjqH-39" edge="1">
          <mxGeometry width="50" height="50" relative="1" as="geometry">
            <mxPoint x="420" y="370" as="sourcePoint" />
            <mxPoint x="470" y="320" as="targetPoint" />
            <Array as="points">
              <mxPoint x="440" y="260" />
            </Array>
          </mxGeometry>
        </mxCell>
        <mxCell id="PCScmDSAhNLaTmxLWjqH-75" value="" style="endArrow=none;html=1;rounded=0;entryX=0;entryY=0.5;entryDx=0;entryDy=0;" parent="1" target="PCScmDSAhNLaTmxLWjqH-35" edge="1">
          <mxGeometry width="50" height="50" relative="1" as="geometry">
            <mxPoint x="405" y="260" as="sourcePoint" />
            <mxPoint x="470" y="320" as="targetPoint" />
            <Array as="points">
              <mxPoint x="430" y="235" />
            </Array>
          </mxGeometry>
        </mxCell>
        <mxCell id="bJRaiyuefC587Na0kjGE-1" value="10k" style="text;html=1;align=center;verticalAlign=middle;whiteSpace=wrap;rounded=0;" vertex="1" parent="1">
          <mxGeometry x="490" y="360" width="60" height="12.5" as="geometry" />
        </mxCell>
        <mxCell id="bJRaiyuefC587Na0kjGE-2" value="10k" style="text;html=1;align=center;verticalAlign=middle;whiteSpace=wrap;rounded=0;" vertex="1" parent="1">
          <mxGeometry x="395" y="327.5" width="60" height="12.5" as="geometry" />
        </mxCell>
      </root>
    </mxGraphModel>
  </diagram>
</mxfile>
